<svg width="32" height="32" viewBox="0 0 32 32" fill="none" xmlns="http://www.w3.org/2000/svg">
<path d="M22.9813 13.3333H25.1773V9.3333C25.1773 8.97967 25.3178 8.64054 25.5678 8.39049C25.8179 8.14044 26.157 7.99996 26.5106 7.99996C26.8642 7.99996 27.2034 8.14044 27.4534 8.39049C27.7035 8.64054 27.844 8.97967 27.844 9.3333V13.3333C27.844 14.0405 27.563 14.7188 27.0629 15.2189C26.5628 15.719 25.8845 16 25.1773 16H24V17.3333H28C28.3536 17.3333 28.6927 17.4738 28.9428 17.7238C29.1928 17.9739 29.3333 18.313 29.3333 18.6666C29.3333 19.0203 29.1928 19.3594 28.9428 19.6094C28.6927 19.8595 28.3536 20 28 20H24V21.3333H25.1773C25.8845 21.3333 26.5628 21.6142 27.0629 22.1143C27.563 22.6144 27.844 23.2927 27.844 24V28C27.844 28.3536 27.7035 28.6927 27.4534 28.9428C27.2034 29.1928 26.8642 29.3333 26.5106 29.3333C26.157 29.3333 25.8179 29.1928 25.5678 28.9428C25.3178 28.6927 25.1773 28.3536 25.1773 28V24H23.5453C23.0687 25.3448 22.2416 26.5379 21.1495 27.456C20.0574 28.3742 18.74 28.9841 17.3333 29.2226V20C17.3333 19.6463 17.1928 19.3072 16.9428 19.0572C16.6927 18.8071 16.3536 18.6666 16 18.6666C15.6463 18.6666 15.3072 18.8071 15.0572 19.0572C14.8071 19.3072 14.6666 19.6463 14.6666 20V29.2226C13.26 28.9841 11.9425 28.3742 10.8504 27.456C9.75835 26.5379 8.93126 25.3448 8.45463 24H6.66663V28C6.66663 28.3536 6.52615 28.6927 6.2761 28.9428C6.02605 29.1928 5.68691 29.3333 5.33329 29.3333C4.97967 29.3333 4.64053 29.1928 4.39048 28.9428C4.14044 28.6927 3.99996 28.3536 3.99996 28V24C3.99996 23.2927 4.28091 22.6144 4.78101 22.1143C5.28111 21.6142 5.95938 21.3333 6.66663 21.3333H7.99996V20H3.99996C3.64634 20 3.3072 19.8595 3.05715 19.6094C2.8071 19.3594 2.66663 19.0203 2.66663 18.6666C2.66663 18.313 2.8071 17.9739 3.05715 17.7238C3.3072 17.4738 3.64634 17.3333 3.99996 17.3333H7.99996V16H6.66663C5.95938 16 5.28111 15.719 4.78101 15.2189C4.28091 14.7188 3.99996 14.0405 3.99996 13.3333V9.3333C3.99996 8.97967 4.14044 8.64054 4.39048 8.39049C4.64053 8.14044 4.97967 7.99996 5.33329 7.99996C5.68691 7.99996 6.02605 8.14044 6.2761 8.39049C6.52615 8.64054 6.66663 8.97967 6.66663 9.3333V13.3333H9.01863C9.46624 12.8318 10.033 12.4512 10.6666 12.2266V9.3333C10.6666 8.62605 10.9476 7.94778 11.4477 7.44768C11.9478 6.94758 12.626 6.66663 13.3333 6.66663H14.316C13.8586 5.8693 12.9986 5.3333 12.0146 5.3333H9.33329C8.97967 5.3333 8.64053 5.19282 8.39048 4.94277C8.14044 4.69272 7.99996 4.35358 7.99996 3.99996C7.99996 3.64634 8.14044 3.3072 8.39048 3.05715C8.64053 2.80711 8.97967 2.66663 9.33329 2.66663H12.0133C12.7674 2.66577 13.5129 2.82563 14.2004 3.13554C14.8878 3.44546 15.5013 3.89833 16 4.46396C16.4986 3.89833 17.1121 3.44546 17.7995 3.13554C18.487 2.82563 19.2326 2.66577 19.9866 2.66663H22.6666C23.0202 2.66663 23.3594 2.80711 23.6094 3.05715C23.8595 3.3072 24 3.64634 24 3.99996C24 4.35358 23.8595 4.69272 23.6094 4.94277C23.3594 5.19282 23.0202 5.3333 22.6666 5.3333H19.9866C19 5.3333 18.1413 5.8693 17.684 6.66663H18.6666C19.3739 6.66663 20.0521 6.94758 20.5522 7.44768C21.0523 7.94778 21.3333 8.62605 21.3333 9.3333V12.2266C21.9669 12.4512 22.5337 12.8318 22.9813 13.3333V13.3333Z" fill="white"/>
</svg>
