<svg width="32" height="32" viewBox="0 0 32 32" fill="none" xmlns="http://www.w3.org/2000/svg">
<path d="M22.6667 16C18.9867 16 16 18.9867 16 22.6667C16 26.3467 18.9867 29.3334 22.6667 29.3334C26.3467 29.3334 29.3334 26.3467 29.3334 22.6667C29.3334 18.9867 26.3467 16 22.6667 16ZM24.8667 25.8L22 22.9334V18.6667H23.3334V22.3867L25.8 24.8534L24.8667 25.8V25.8ZM24 4.00004H19.76C19.2 2.45337 17.7334 1.33337 16 1.33337C14.2667 1.33337 12.8 2.45337 12.24 4.00004H8.00004C6.53337 4.00004 5.33337 5.20004 5.33337 6.66671V26.6667C5.33337 28.1334 6.53337 29.3334 8.00004 29.3334H16.1467C15.3579 28.5677 14.7161 27.6639 14.2534 26.6667H8.00004V6.66671H10.6667V10.6667H21.3334V6.66671H24V13.44C24.9467 13.5734 25.84 13.8534 26.6667 14.24V6.66671C26.6667 5.20004 25.4667 4.00004 24 4.00004ZM16 6.66671C15.2667 6.66671 14.6667 6.06671 14.6667 5.33337C14.6667 4.60004 15.2667 4.00004 16 4.00004C16.7334 4.00004 17.3334 4.60004 17.3334 5.33337C17.3334 6.06671 16.7334 6.66671 16 6.66671Z" fill="white"/>
</svg>
