<svg width="24" height="24" viewBox="0 0 24 24" fill="none" xmlns="http://www.w3.org/2000/svg">
<path d="M8.00006 10.76H7.42006C6.62856 10.7314 5.83963 10.8658 5.10223 11.1548C4.36482 11.4438 3.69468 11.8812 3.13339 12.44L2.97339 12.6267V18.1467H5.69339V15.0133L6.06006 14.6L6.22672 14.4067C7.09467 13.515 8.17524 12.8589 9.36672 12.5C8.77019 12.0461 8.29971 11.4471 8.00006 10.76V10.76Z" fill="white"/>
<path d="M20.8933 12.42C20.332 11.8612 19.6619 11.4237 18.9245 11.1347C18.1871 10.8457 17.3981 10.7114 16.6066 10.74C16.3639 10.7407 16.1213 10.754 15.88 10.78C15.5747 11.4246 15.1171 11.9852 14.5466 12.4133C15.8186 12.7652 16.9709 13.4566 17.88 14.4133L18.0466 14.6L18.4066 15.0133V18.1533H21.0333V12.6066L20.8933 12.42Z" fill="white"/>
<path d="M7.40004 9.45999H7.6067C7.51068 8.63549 7.65535 7.80081 8.02326 7.05672C8.39116 6.31263 8.96658 5.69092 9.68004 5.26666C9.42141 4.87156 9.06461 4.5504 8.64457 4.33462C8.22454 4.11885 7.75566 4.01586 7.28386 4.03574C6.81206 4.05563 6.35351 4.1977 5.95312 4.44804C5.55272 4.69839 5.22421 5.04843 4.99974 5.46389C4.77527 5.87935 4.66255 6.34598 4.67262 6.81809C4.68268 7.2902 4.81518 7.75161 5.05714 8.15713C5.29911 8.56264 5.64224 8.89837 6.05293 9.13143C6.46363 9.36449 6.92782 9.4869 7.40004 9.48666V9.45999Z" fill="white"/>
<path d="M16.2867 8.96004C16.2948 9.11326 16.2948 9.26681 16.2867 9.42004C16.4146 9.44032 16.5438 9.45146 16.6734 9.45337H16.8C17.2702 9.4283 17.7258 9.28192 18.1226 9.02849C18.5194 8.77506 18.8438 8.4232 19.0642 8.00718C19.2846 7.59116 19.3936 7.12515 19.3804 6.65453C19.3673 6.1839 19.2325 5.72469 18.9893 5.32161C18.746 4.91853 18.4025 4.58531 17.9922 4.35439C17.5819 4.12347 17.1188 4.00273 16.648 4.00391C16.1772 4.0051 15.7147 4.12817 15.3056 4.36115C14.8964 4.59413 14.5546 4.92907 14.3134 5.33337C14.9167 5.72733 15.4129 6.26491 15.7573 6.89788C16.1017 7.53086 16.2836 8.23943 16.2867 8.96004V8.96004Z" fill="white"/>
<path d="M11.9134 11.9467C13.5592 11.9467 14.8933 10.6125 14.8933 8.96669C14.8933 7.32089 13.5592 5.98669 11.9134 5.98669C10.2675 5.98669 8.93335 7.32089 8.93335 8.96669C8.93335 10.6125 10.2675 11.9467 11.9134 11.9467Z" fill="white"/>
<path d="M12.0733 13.5333C11.2027 13.4982 10.3339 13.6395 9.51932 13.9489C8.70473 14.2582 7.96114 14.7291 7.33329 15.3333L7.16663 15.52V19.74C7.16923 19.8774 7.19888 20.013 7.2539 20.139C7.30892 20.265 7.38822 20.379 7.48727 20.4743C7.58633 20.5696 7.7032 20.6445 7.8312 20.6947C7.9592 20.7449 8.09584 20.7693 8.23329 20.7667H15.8933C16.0307 20.7693 16.1674 20.7449 16.2954 20.6947C16.4234 20.6445 16.5403 20.5696 16.6393 20.4743C16.7384 20.379 16.8177 20.265 16.8727 20.139C16.9277 20.013 16.9574 19.8774 16.96 19.74V15.5333L16.8 15.3333C16.1762 14.7273 15.4352 14.255 14.6224 13.9455C13.8096 13.636 12.9422 13.4957 12.0733 13.5333V13.5333Z" fill="white"/>
</svg>
