<svg width="32" height="32" viewBox="0 0 32 32" fill="none" xmlns="http://www.w3.org/2000/svg">
<path d="M25.8182 7.54545C24.6073 7.16364 23.2764 7 22 7C19.8727 7 17.5818 7.43636 16 8.63636C14.4182 7.43636 12.1273 7 10 7C7.87273 7 5.58182 7.43636 4 8.63636V24.6182C4 24.8909 4.27273 25.1636 4.54545 25.1636C4.65455 25.1636 4.70909 25.1091 4.81818 25.1091C6.29091 24.4 8.41818 23.9091 10 23.9091C12.1273 23.9091 14.4182 24.3455 16 25.5455C17.4727 24.6182 20.1455 23.9091 22 23.9091C23.8 23.9091 25.6545 24.2364 27.1818 25.0545C27.2909 25.1091 27.3455 25.1091 27.4545 25.1091C27.7273 25.1091 28 24.8364 28 24.5636V8.63636C27.3455 8.14545 26.6364 7.81818 25.8182 7.54545ZM25.8182 22.2727C24.6182 21.8909 23.3091 21.7273 22 21.7273C20.1455 21.7273 17.4727 22.4364 16 23.3636V10.8182C17.4727 9.89091 20.1455 9.18182 22 9.18182C23.3091 9.18182 24.6182 9.34545 25.8182 9.72727V22.2727Z" fill="white"/>
<path d="M22 13.5454C22.96 13.5454 23.8873 13.6436 24.7273 13.8291V12.1709C23.8655 12.0072 22.9382 11.9091 22 11.9091C20.1455 11.9091 18.4655 12.2254 17.0909 12.8145V14.6254C18.3237 13.9272 20.0364 13.5454 22 13.5454ZM17.0909 15.7163V17.5272C18.3237 16.8291 20.0364 16.4472 22 16.4472C22.96 16.4472 23.8873 16.5454 24.7273 16.7309V15.0727C23.8655 14.9091 22.9382 14.8109 22 14.8109C20.1455 14.8109 18.4655 15.1381 17.0909 15.7163ZM22 17.7236C20.1455 17.7236 18.4655 18.04 17.0909 18.6291V20.44C18.3237 19.7418 20.0364 19.36 22 19.36C22.96 19.36 23.8873 19.4581 24.7273 19.6436V17.9854C23.8655 17.8109 22.9382 17.7236 22 17.7236Z" fill="white"/>
</svg>
