<svg width="32" height="32" viewBox="0 0 32 32" fill="none" xmlns="http://www.w3.org/2000/svg">
<path d="M12.8 4.0016C12.0538 3.98376 11.3115 4.11532 10.6168 4.38857C9.92219 4.66182 9.2892 5.07122 8.7551 5.59269C8.22101 6.11417 7.79659 6.73719 7.50681 7.42511C7.21704 8.11303 7.06776 8.85194 7.06776 9.5984C7.06776 10.3449 7.21704 11.0838 7.50681 11.7717C7.79659 12.4596 8.22101 13.0826 8.7551 13.6041C9.2892 14.1256 9.92219 14.535 10.6168 14.8082C11.3115 15.0815 12.0538 15.213 12.8 15.1952C13.5462 15.213 14.2885 15.0815 14.9832 14.8082C15.6778 14.535 16.3108 14.1256 16.8449 13.6041C17.379 13.0826 17.8034 12.4596 18.0932 11.7717C18.383 11.0838 18.5322 10.3449 18.5322 9.5984C18.5322 8.85194 18.383 8.11303 18.0932 7.42511C17.8034 6.73719 17.379 6.11417 16.8449 5.59269C16.3108 5.07122 15.6778 4.66182 14.9832 4.38857C14.2885 4.11532 13.5462 3.98376 12.8 4.0016V4.0016ZM9.6 18.392C8.11479 18.392 6.69041 18.982 5.6402 20.0322C4.59 21.0824 4 22.5068 4 23.992L4 27.9872H21.6V23.992C21.6 22.5068 21.01 21.0824 19.9598 20.0322C18.9096 18.982 17.4852 18.392 16 18.392H9.6ZM24 20.0016H23.2V28.0016H28V24.0016C28 22.9407 27.5786 21.9233 26.8284 21.1732C26.0783 20.423 25.0609 20.0016 24 20.0016Z" fill="white"/>
<path d="M22.4 10.4016C21.3392 10.4016 20.3217 10.823 19.5716 11.5732C18.8215 12.3233 18.4 13.3407 18.4 14.4016C18.4 15.4625 18.8215 16.4799 19.5716 17.23C20.3217 17.9802 21.3392 18.4016 22.4 18.4016C23.4609 18.4016 24.4783 17.9802 25.2285 17.23C25.9786 16.4799 26.4 15.4625 26.4 14.4016C26.4 13.3407 25.9786 12.3233 25.2285 11.5732C24.4783 10.823 23.4609 10.4016 22.4 10.4016V10.4016Z" fill="white"/>
</svg>
